<svg xmlns:xlink="http://www.w3.org/1999/xlink" xmlns="http://www.w3.org/2000/svg" viewBox="0 0 1704 1704" width="1704" height="1704" preserveAspectRatio="xMidYMid meet" style="width: 100%; height: 100%; transform: translate3d(0px, 0px, 0px);"><defs><clipPath id="__lottie_element_2"><rect width="1704" height="1704" x="0" y="0"></rect></clipPath></defs><g clip-path="url(#__lottie_element_2)"><g transform="matrix(3.5399999618530273,0,0,3.5399999618530273,856.0081176757812,846.2722778320312)" opacity="1" style="display: block;"><g opacity="1" transform="matrix(1,0,0,1,0,0)"><path fill="#EEF5FF" fill-opacity="1" d=" M0,-77.61599731445312 C42.86600112915039,-77.61599731445312 77.61599731445312,-42.86600112915039 77.61599731445312,0 C77.61599731445312,42.86600112915039 42.86600112915039,77.61599731445312 0,77.61599731445312 C-42.86600112915039,77.61599731445312 -77.61599731445312,42.86600112915039 -77.61599731445312,0 C-77.61599731445312,-42.86600112915039 -42.86600112915039,-77.61599731445312 0,-77.61599731445312z"></path></g></g><g transform="matrix(3.5399999618530273,0,0,3.5399999618530273,850.4219970703125,854.2550048828125)" opacity="1" style="display: block;"><g opacity="1" transform="matrix(1,0,0,1,0,0)"><path stroke-linecap="butt" stroke-linejoin="miter" fill-opacity="0" stroke-miterlimit="4" stroke="#000000" stroke-opacity="1" stroke-width="23px" d=" M1.0640000104904175,0 C1.0640000104904175,0 -83.46099853515625,0 -83.46099853515625,0 C-83.46099853515625,0 -83.46099853515625,0 -83.46099853515625,0 C-106.50800323486328,0 -127.3740005493164,9.342000007629395 -142.4770050048828,24.44499969482422 C-157.5800018310547,39.54800033569336 -166.9219970703125,60.41400146484375 -166.9219970703125,83.46099853515625 C-166.9219970703125,106.50800323486328 -157.5800018310547,127.3740005493164 -142.4770050048828,142.4770050048828 C-127.3740005493164,157.5800018310547 -106.50800323486328,166.9219970703125 -83.46099853515625,166.9219970703125 C-60.41400146484375,166.9219970703125 -39.54800033569336,157.5800018310547 -24.44499969482422,142.4770050048828 C-9.342000007629395,127.3740005493164 0,106.50800323486328 0,83.46099853515625 C0,83.46099853515625 0,-1.0889999866485596 0,-1.0889999866485596 C0,-1.0889999866485596 0,-83.46099853515625 0,-83.46099853515625 C0,-106.50800323486328 9.342000007629395,-127.3740005493164 24.44499969482422,-142.4770050048828 C39.54800033569336,-157.5800018310547 60.41400146484375,-166.9219970703125 83.46099853515625,-166.9219970703125 C106.50800323486328,-166.9219970703125 127.3740005493164,-157.5800018310547 142.4770050048828,-142.4770050048828 C157.5800018310547,-127.3740005493164 166.9219970703125,-106.50800323486328 166.9219970703125,-83.46099853515625 C166.9219970703125,-60.41400146484375 157.5800018310547,-39.54800033569336 142.4770050048828,-24.44499969482422 C127.3740005493164,-9.342000007629395 106.50800323486328,0 83.46099853515625,0 C83.46099853515625,0 83.46099853515625,0 83.46099853515625,0 C83.46099853515625,0 1.0640000104904175,0 1.0640000104904175,0z"></path></g></g><g transform="matrix(3.5399999618530273,0,0,3.5399999618530273,850.4219970703125,854.2550048828125)" opacity="0.3" style="display: block;"><g opacity="1" transform="matrix(1,0,0,1,0,0)"><path stroke-linecap="butt" stroke-linejoin="miter" fill-opacity="0" stroke-miterlimit="4" stroke="#3333FF" stroke-opacity="1" stroke-width="23px" d=" M-9.803999900817871,0 C-32.62799835205078,0 -83.46099853515625,0 -83.46099853515625,0 C-83.46099853515625,0 -83.46099853515625,0 -83.46099853515625,0 C-96.77200317382812,0 -109.35600280761719,3.115999937057495 -120.52300262451172,8.659000396728516"></path></g></g><g transform="matrix(3.5399999618530273,0,0,3.5399999618530273,850.4219970703125,854.2550048828125)" opacity="0.4" style="display: block;"><g opacity="1" transform="matrix(1,0,0,1,0,0)"><path stroke-linecap="butt" stroke-linejoin="miter" fill-opacity="0" stroke-miterlimit="4" stroke="#3333FF" stroke-opacity="1" stroke-width="23px" d=" M-9.803999900817871,0 C-32.62799835205078,0 -83.46099853515625,0 -83.46099853515625,0 C-83.46099853515625,0 -83.46099853515625,0 -83.46099853515625,0 C-86.96900177001953,0 -90.427001953125,0.2160000056028366 -93.82099914550781,0.6370000243186951"></path></g></g><g transform="matrix(3.5399999618530273,0,0,3.5399999618530273,850.4219970703125,854.2550048828125)" opacity="0.6" style="display: block;"><g opacity="1" transform="matrix(1,0,0,1,0,0)"><path stroke-linecap="butt" stroke-linejoin="miter" fill-opacity="0" stroke-miterlimit="4" stroke="#3333FF" stroke-opacity="1" stroke-width="23px" d=" M-9.803999900817871,0 C-23.974000930786133,0 -48.93899917602539,0 -65.83399963378906,0"></path></g></g><g transform="matrix(3.5399999618530273,0,0,3.5399999618530273,850.4219970703125,854.2550048828125)" opacity="0.8" style="display: block;"><g opacity="1" transform="matrix(1,0,0,1,0,0)"><path stroke-linecap="butt" stroke-linejoin="miter" fill-opacity="0" stroke-miterlimit="4" stroke="#3333FF" stroke-opacity="1" stroke-width="23px" d=" M-9.803999900817871,0 C-17.12700080871582,0 -27.33300018310547,0 -37.819000244140625,0"></path></g></g></g></svg>