<svg xmlns="http://www.w3.org/2000/svg" xmlns:xlink="http://www.w3.org/1999/xlink" id="Layer_1" data-name="Layer 1" viewBox="0 0 40 40" width="40"  height="40" ><defs><clipPath id="clippath"><path d="M31.55,16.74l.2,1.06.02.12c.12.69.18,1.39.18,2.09,0,6.6-5.35,11.95-11.95,11.95-2.92,0-5.68-1.05-7.82-2.91l2.34-1.46-6.32-2.68-.36,6.86,2.44-1.52c2.38,2.27,5.49,3.65,8.83,3.85h1.77c6.53-.41,11.85-5.25,12.99-11.55v-5.06s0-.05-.02-.08l-.2-1.06-2.12.4ZM5.89,20.01c0,.9.08,1.79.25,2.66l.2,1.06,2.12-.4-.2-1.06-.02-.12c-.13-.7-.19-1.41-.19-2.14,0-6.6,5.35-11.95,11.95-11.95,2.95,0,5.73,1.07,7.88,2.96l-2.21,1.38,6.32,2.68.36-6.86-2.57,1.61c-2.6-2.5-6.07-3.93-9.77-3.93-7.79,0-14.11,6.32-14.11,14.11" style="fill: none;"></path></clipPath><clipPath id="clippath-1"><path d="M31.75,17.8l.02.12c.12.69.18,1.39.18,2.09h2.16v-.13c0-.84-.09-1.67-.24-2.48l-2.12.4Z" style="fill: none;"></path></clipPath><clipPath id="clippath-2"><path d="M31.95,20.01v.11c0,.82-.1,1.63-.27,2.43l2.11.46.02-.12c.2-.94.29-1.9.29-2.88h-2.16Z" style="fill: none;"></path></clipPath><clipPath id="clippath-3"><path d="M31.66,22.66c-.18.8-.44,1.58-.78,2.32l1.96.9.05-.11c.39-.88.7-1.81.9-2.76l-2.11-.46-.02.11Z" style="fill: none;"></path></clipPath><clipPath id="clippath-4"><path d="M30.82,25.09c-.3.65-.67,1.26-1.08,1.85l1.76,1.25.07-.1c.49-.69.91-1.43,1.26-2.2l-1.96-.9-.05.11Z" style="fill: none;"></path></clipPath><clipPath id="clippath-5"><path d="M29.67,27.03c-.38.53-.81,1.02-1.27,1.48l1.52,1.53.09-.09c.54-.55,1.04-1.14,1.49-1.77l-1.76-1.25-.07.1Z" style="fill: none;"></path></clipPath><clipPath id="clippath-6"><rect x="12.62" y="12.57" width="14.75" height="14.86" style="fill: none;"></rect></clipPath><clipPath id="clippath-7"><path d="M19.97,15.54c1.93,0,3.57,1.31,4.09,3.1,1.46.07,2.62,1.29,2.62,2.79s-1.07,2.62-2.44,2.77h-.03l-8.99-.06h-.12c-1.05-.28-1.81-1.07-1.81-2.4s1.01-2.41,2.3-2.48h.17c.3-2.11,2.07-3.73,4.22-3.73h0ZM19.97,16.47c-1.63,0-3,1.18-3.3,2.78l-.02.14-.11.81h-.84c-.84,0-1.52.69-1.52,1.54,0,.67.43,1.26,1.04,1.47l.1.03.19.05h8.63c.88-.11,1.57-.85,1.62-1.75v-.11c0-.96-.71-1.75-1.63-1.85h-.11s-.65-.04-.65-.04l-.19-.63c-.42-1.44-1.72-2.44-3.22-2.44h0Z" style="clip-path: url(#clippath-6); fill: none;"></path></clipPath></defs><circle cx="20" cy="20" r="20" style="" fill="#EEF5FF"></circle><g><g style="clip-path: url(#clippath);"><rect x="5.43" y="5.44" width="29.15" height="29.15"></rect></g><g style="clip-path: url(#clippath-1);"><rect x="31.28" y="16.93" width="3.3" height="3.55" style="" fill="#000033"></rect></g><g style="clip-path: url(#clippath-2);"><rect x="31.21" y="19.55" width="3.36" height="3.93" style="" fill="#080D66"></rect></g><g style="clip-path: url(#clippath-3);"><rect x="30.4" y="22.08" width="3.85" height="4.26" style="" fill="#1C1C94"></rect></g><g style="clip-path: url(#clippath-4);"><rect x="29.27" y="24.51" width="4.03" height="4.14" style="" fill="#2926CA"></rect></g><g style="clip-path: url(#clippath-5);"><rect x="27.93" y="26.47" width="4.04" height="4.05" style="" fill="#3330FA"></rect></g></g><g style="clip-path: url(#clippath-7);"><rect x="11.64" y="13.89" width="16.68" height="11.97"></rect></g></svg>