<svg xmlns="http://www.w3.org/2000/svg" viewBox="0 0 1920 600">
  <defs>
    <linearGradient id="bg2" x1="0%" y1="0%" x2="100%" y2="100%">
      <stop offset="0%" style="stop-color:#0f0f27"/>
      <stop offset="100%" style="stop-color:#08081a"/>
    </linearGradient>
    <radialGradient id="glow3" cx="50%" cy="50%" r="60%">
      <stop offset="0%" style="stop-color:#2563EB;stop-opacity:0.06"/>
      <stop offset="100%" style="stop-color:#2563EB;stop-opacity:0"/>
    </radialGradient>
  </defs>
  <rect width="1920" height="600" fill="url(#bg2)"/>
  <rect width="1920" height="600" fill="url(#glow3)"/>
  <!-- Network mesh -->
  <g stroke="#2563EB" stroke-width="0.6" opacity="0.08" fill="none">
    <line x1="100" y1="50" x2="280" y2="120"/>
    <line x1="280" y1="120" x2="400" y2="60"/>
    <line x1="280" y1="120" x2="350" y2="250"/>
    <line x1="100" y1="50" x2="150" y2="200"/>
    <line x1="150" y1="200" x2="350" y2="250"/>
    <line x1="400" y1="60" x2="550" y2="180"/>
    <line x1="550" y1="180" x2="350" y2="250"/>
    <line x1="550" y1="180" x2="700" y2="100"/>
    <line x1="700" y1="100" x2="850" y2="200"/>
    <line x1="850" y1="200" x2="960" y2="120"/>
    <line x1="960" y1="120" x2="1100" y2="220"/>
    <line x1="1100" y1="220" x2="1250" y2="150"/>
    <line x1="1250" y1="150" x2="1400" y2="230"/>
    <line x1="1400" y1="230" x2="1550" y2="160"/>
    <line x1="1550" y1="160" x2="1700" y2="250"/>
    <line x1="1700" y1="250" x2="1850" y2="180"/>
    <line x1="350" y1="250" x2="500" y2="370"/>
    <line x1="550" y1="180" x2="650" y2="330"/>
    <line x1="850" y1="200" x2="800" y2="350"/>
    <line x1="1100" y1="220" x2="1050" y2="380"/>
    <line x1="1400" y1="230" x2="1350" y2="390"/>
    <line x1="1700" y1="250" x2="1650" y2="400"/>
    <line x1="500" y1="370" x2="650" y2="330"/>
    <line x1="650" y1="330" x2="800" y2="350"/>
    <line x1="800" y1="350" x2="1050" y2="380"/>
    <line x1="1050" y1="380" x2="1350" y2="390"/>
    <line x1="1350" y1="390" x2="1650" y2="400"/>
    <line x1="500" y1="370" x2="400" y2="500"/>
    <line x1="800" y1="350" x2="750" y2="500"/>
    <line x1="1050" y1="380" x2="1000" y2="530"/>
    <line x1="1350" y1="390" x2="1300" y2="520"/>
    <line x1="1650" y1="400" x2="1750" y2="530"/>
  </g>
  <!-- Nodes -->
  <g fill="#2563EB">
    <circle cx="100" cy="50" r="3" opacity="0.2"/>
    <circle cx="280" cy="120" r="4" opacity="0.25"/>
    <circle cx="400" cy="60" r="3" opacity="0.2"/>
    <circle cx="350" cy="250" r="4" opacity="0.25"/>
    <circle cx="550" cy="180" r="5" opacity="0.3"/>
    <circle cx="700" cy="100" r="3" opacity="0.2"/>
    <circle cx="850" cy="200" r="4" opacity="0.25"/>
    <circle cx="960" cy="120" r="5" opacity="0.3"/>
    <circle cx="1100" cy="220" r="4" opacity="0.25"/>
    <circle cx="1250" cy="150" r="3" opacity="0.2"/>
    <circle cx="1400" cy="230" r="4" opacity="0.25"/>
    <circle cx="1550" cy="160" r="3" opacity="0.2"/>
    <circle cx="1700" cy="250" r="5" opacity="0.3"/>
    <circle cx="500" cy="370" r="3" opacity="0.2"/>
    <circle cx="650" cy="330" r="4" opacity="0.25"/>
    <circle cx="800" cy="350" r="4" opacity="0.25"/>
    <circle cx="1050" cy="380" r="4" opacity="0.25"/>
    <circle cx="1350" cy="390" r="3" opacity="0.2"/>
    <circle cx="1650" cy="400" r="4" opacity="0.25"/>
    <circle cx="150" cy="200" r="3" opacity="0.15"/>
    <circle cx="1850" cy="180" r="3" opacity="0.15"/>
  </g>
</svg>
