<svg xmlns="http://www.w3.org/2000/svg" viewBox="0 0 1920 600">
  <defs>
    <linearGradient id="bglt" x1="0%" y1="0%" x2="100%" y2="100%">
      <stop offset="0%" style="stop-color:#f0f6f8"/>
      <stop offset="100%" style="stop-color:#e8f1f5"/>
    </linearGradient>
  </defs>
  <rect width="1920" height="600" fill="url(#bglt)"/>
  <!-- Network mesh (very subtle on light bg) -->
  <g stroke="#1D2343" stroke-width="0.5" opacity="0.04" fill="none">
    <line x1="100" y1="80" x2="300" y2="150"/>
    <line x1="300" y1="150" x2="500" y2="90"/>
    <line x1="300" y1="150" x2="400" y2="300"/>
    <line x1="500" y1="90" x2="650" y2="200"/>
    <line x1="650" y1="200" x2="400" y2="300"/>
    <line x1="650" y1="200" x2="850" y2="150"/>
    <line x1="850" y1="150" x2="1050" y2="250"/>
    <line x1="1050" y1="250" x2="1200" y2="130"/>
    <line x1="1200" y1="130" x2="1400" y2="200"/>
    <line x1="1400" y1="200" x2="1600" y2="120"/>
    <line x1="1600" y1="120" x2="1800" y2="210"/>
    <line x1="400" y1="300" x2="600" y2="400"/>
    <line x1="650" y1="200" x2="700" y2="370"/>
    <line x1="1050" y1="250" x2="1000" y2="400"/>
    <line x1="1400" y1="200" x2="1350" y2="380"/>
    <line x1="1800" y1="210" x2="1750" y2="400"/>
    <line x1="600" y1="400" x2="700" y2="370"/>
    <line x1="700" y1="370" x2="1000" y2="400"/>
    <line x1="1000" y1="400" x2="1350" y2="380"/>
    <line x1="1350" y1="380" x2="1750" y2="400"/>
    <line x1="600" y1="400" x2="500" y2="530"/>
    <line x1="1000" y1="400" x2="950" y2="540"/>
    <line x1="1350" y1="380" x2="1400" y2="520"/>
  </g>
  <g fill="#1D2343">
    <circle cx="300" cy="150" r="3" opacity="0.06"/>
    <circle cx="500" cy="90" r="2.5" opacity="0.05"/>
    <circle cx="650" cy="200" r="3.5" opacity="0.06"/>
    <circle cx="850" cy="150" r="2.5" opacity="0.05"/>
    <circle cx="1050" cy="250" r="3" opacity="0.06"/>
    <circle cx="1200" cy="130" r="2.5" opacity="0.05"/>
    <circle cx="1400" cy="200" r="3" opacity="0.06"/>
    <circle cx="1600" cy="120" r="2.5" opacity="0.05"/>
    <circle cx="1800" cy="210" r="3" opacity="0.06"/>
    <circle cx="400" cy="300" r="2.5" opacity="0.05"/>
    <circle cx="700" cy="370" r="3" opacity="0.05"/>
    <circle cx="1000" cy="400" r="3" opacity="0.05"/>
    <circle cx="1350" cy="380" r="2.5" opacity="0.05"/>
  </g>
</svg>
